<svg width="114" height="223" viewBox="1888 -14193 114 223" xmlns="http://www.w3.org/2000/svg">
	<!--
    Data Credits: OpenStreetMap contributors (https://www.openstreetmap.org/copyright/)
    License: Open Data Commons Open Database License (https://opendatacommons.org/licenses/odbl/1-0/)
-->
	<g>
		<g name="Bremen-Mitte" wikidata="Q17278534">
			<polygon points="1957,-13996 1958,-13997 1958,-13998 1959,-13998 1959,-14000 1961,-13998 1962,-13998 1962,-13997 1963,-13997 1963,-13996 1965,-13996 1965,-13995 1964,-13994 1964,-13993 1965,-13992 1965,-13991 1963,-13991 1963,-13992 1962,-13992 1960,-13993 1960,-13994 1959,-13994 1959,-13995 1958,-13995 1957,-13996" fill="#1b1bf3" stroke="black" stroke-width="0.1050" stroke-linecap="round" stroke-linejoin="round" opacity="0.8" region="Bremen-Mitte" />
			<polygon points="1957,-13996 1956,-13995 1956,-13994 1955,-13994 1955,-13995 1954,-13995 1954,-13996 1953,-13996 1953,-13997 1952,-13997 1952,-13998 1953,-13998 1954,-13997 1954,-13996 1957,-13996" fill="#1b1bf3" stroke="black" stroke-width="0.1050" stroke-linecap="round" stroke-linejoin="round" opacity="0.8" region="Bremen-Mitte" />
			<polygon points="1897,-14186 1898,-14186 1898,-14187 1899,-14187 1901,-14189 1901,-14188 1902,-14188 1901,-14187 1902,-14185 1903,-14184 1903,-14183 1906,-14183 1907,-14182 1907,-14183 1909,-14183 1909,-14182 1910,-14182 1909,-14181 1909,-14178 1908,-14176 1907,-14175 1907,-14172 1908,-14171 1907,-14171 1906,-14170 1903,-14176 1902,-14177 1900,-14182 1897,-14186" fill="#1b1bf3" stroke="black" stroke-width="0.1050" stroke-linecap="round" stroke-linejoin="round" opacity="0.8" region="Bremen-Mitte" />
			<polygon points="1927,-14013 1927,-14014 1926,-14015 1927,-14015 1927,-14016 1928,-14018 1929,-14018 1930,-14021 1930,-14023 1931,-14023 1935,-14021 1936,-14020 1938,-14020 1940,-14018 1940,-14017 1939,-14016 1938,-14014 1939,-14015 1939,-14016 1942,-14016 1942,-14015 1943,-14015 1943,-14014 1944,-14014 1945,-14013 1946,-14013 1946,-14012 1947,-14012 1947,-14011 1948,-14011 1949,-14010 1949,-14008 1948,-14008 1948,-14006 1947,-14005 1947,-14006 1946,-14007 1946,-14006 1947,-14005 1947,-14004 1948,-14004 1948,-14002 1947,-14002 1947,-13999 1948,-13999 1948,-13998 1949,-13997 1949,-13996 1950,-13995 1949,-13995 1947,-13994 1946,-13995 1945,-13995 1945,-13996 1944,-13996 1942,-13997 1941,-13998 1941,-13999 1940,-14000 1940,-14004 1943,-14007 1943,-14008 1942,-14008 1941,-14009 1937,-14009 1936,-14010 1934,-14011 1931,-14012 1930,-14012 1929,-14013 1927,-14013" fill="#1b1bf3" stroke="black" stroke-width="0.1050" stroke-linecap="round" stroke-linejoin="round" opacity="0.8" region="Bremen-Mitte" />
			<circle cx="1935" cy="-14020" name="Freie Hansestadt Bremen" wikidata="Q1209" maxconnections="5" r="0.3500" fill="black" stroke="#1b1bf3" stroke-width="0.105000" opacity="0.8" region="Bremen-Mitte" />
			<text x="1935" y="-14020" name="Freie Hansestadt Bremen" wikidata="Q1209" maxconnections="5" fill="white" opacity="0.8" text-anchor="middle" font-size="0.63" region="Bremen-Mitte">Freie Hansestadt Bremen (5)</text>
			<circle cx="1962" cy="-13995" name="Mitte" wikidata="Q1715951" maxconnections="4" r="0.2800" fill="black" stroke="#1b1bf3" stroke-width="0.105000" opacity="0.8" region="Bremen-Mitte" />
			<text x="1962" y="-13995" name="Mitte" wikidata="Q1715951" maxconnections="4" fill="white" opacity="0.8" text-anchor="middle" font-size="0.63" region="Bremen-Mitte">Mitte (4)</text>
			<circle cx="1945" cy="-14008" name="Häfen" wikidata="Q884559" maxconnections="2" r="0.1400" fill="black" stroke="#1b1bf3" stroke-width="0.105000" opacity="0.8" region="Bremen-Mitte" />
			<text x="1945" y="-14008" name="Häfen" wikidata="Q884559" maxconnections="2" fill="white" opacity="0.8" text-anchor="middle" font-size="0.63" region="Bremen-Mitte">Häfen (2)</text>
			<circle cx="1961" cy="-13994" name="Bremen" wikidata="Q24879" maxconnections="5" r="0.3500" fill="black" stroke="#1b1bf3" stroke-width="0.105000" opacity="0.8" region="Bremen-Mitte" />
			<text x="1961" y="-13994" name="Bremen" wikidata="Q24879" maxconnections="5" fill="white" opacity="0.8" text-anchor="middle" font-size="0.63" region="Bremen-Mitte">Bremen (5)</text>
		</g>
		<g name="Bremen-Nord" wikidata="Q907314">
			<polygon points="1889,-14050 1892,-14050 1892,-14051 1894,-14051 1894,-14050 1895,-14050 1896,-14051 1897,-14050 1897,-14049 1898,-14049 1898,-14048 1899,-14046 1902,-14046 1902,-14045 1903,-14045 1904,-14043 1905,-14043 1907,-14045 1908,-14045 1908,-14044 1909,-14045 1910,-14047 1911,-14046 1913,-14046 1913,-14045 1914,-14045 1914,-14042 1912,-14042 1912,-14041 1911,-14041 1911,-14038 1910,-14038 1910,-14036 1913,-14036 1913,-14034 1914,-14035 1916,-14035 1916,-14036 1917,-14036 1917,-14038 1920,-14038 1920,-14039 1923,-14039 1923,-14037 1924,-14037 1924,-14036 1927,-14036 1927,-14035 1926,-14034 1928,-14034 1928,-14032 1931,-14032 1931,-14031 1932,-14031 1932,-14032 1934,-14032 1934,-14033 1936,-14033 1936,-14034 1937,-14034 1938,-14033 1937,-14033 1937,-14032 1938,-14032 1938,-14031 1939,-14032 1939,-14033 1940,-14033 1940,-14034 1941,-14034 1941,-14033 1944,-14033 1944,-14031 1946,-14029 1945,-14029 1945,-14028 1943,-14028 1943,-14026 1942,-14026 1942,-14025 1943,-14025 1943,-14024 1944,-14024 1944,-14018 1943,-14018 1942,-14019 1941,-14019 1941,-14018 1940,-14017 1940,-14016 1939,-14016 1939,-14015 1938,-14014 1939,-14016 1940,-14017 1940,-14018 1938,-14020 1936,-14020 1935,-14021 1931,-14023 1930,-14023 1930,-14021 1929,-14018 1928,-14018 1927,-14016 1927,-14015 1926,-14015 1927,-14014 1927,-14013 1925,-14013 1922,-14016 1922,-14017 1921,-14018 1921,-14021 1920,-14022 1920,-14027 1919,-14027 1919,-14028 1918,-14029 1916,-14029 1915,-14030 1911,-14030 1910,-14031 1908,-14031 1908,-14032 1907,-14032 1906,-14033 1905,-14033 1904,-14034 1902,-14034 1902,-14035 1900,-14035 1900,-14036 1899,-14036 1897,-14038 1897,-14039 1895,-14039 1895,-14040 1894,-14040 1893,-14041 1893,-14043 1892,-14042 1892,-14044 1891,-14046 1890,-14047 1890,-14048 1889,-14048 1889,-14049 1888,-14049 1888,-14050 1889,-14050" fill="#06dede" stroke="black" stroke-width="0.1050" stroke-linecap="round" stroke-linejoin="round" opacity="0.8" region="Bremen-Nord" />
			<polygon points="1918,-14039 1918,-14038 1917,-14039 1918,-14039" fill="#06dede" stroke="black" stroke-width="0.1050" stroke-linecap="round" stroke-linejoin="round" opacity="0.8" region="Bremen-Nord" />
			<circle cx="1899" cy="-14040" name="Farge" wikidata="Q878565" maxconnections="3" r="0.2100" fill="black" stroke="#06dede" stroke-width="0.105000" opacity="0.8" region="Bremen-Nord" />
			<text x="1899" y="-14040" name="Farge" wikidata="Q878565" maxconnections="3" fill="white" opacity="0.8" text-anchor="middle" font-size="0.63" region="Bremen-Nord">Farge (3)</text>
			<circle cx="1939" cy="-14029" name="Burgdamm" wikidata="Q31780505" maxconnections="3" r="0.2100" fill="black" stroke="#06dede" stroke-width="0.105000" opacity="0.8" region="Bremen-Nord" />
			<text x="1939" y="-14029" name="Burgdamm" wikidata="Q31780505" maxconnections="3" fill="white" opacity="0.8" text-anchor="middle" font-size="0.63" region="Bremen-Nord">Burgdamm (3)</text>
			<circle cx="1909" cy="-14033" name="Blumenthal" wikidata="Q882474" maxconnections="4" r="0.2800" fill="black" stroke="#06dede" stroke-width="0.105000" opacity="0.8" region="Bremen-Nord" />
			<text x="1909" y="-14033" name="Blumenthal" wikidata="Q882474" maxconnections="4" fill="white" opacity="0.8" text-anchor="middle" font-size="0.63" region="Bremen-Nord">Blumenthal (4)</text>
			<circle cx="1920" cy="-14029" name="Vegesack" wikidata="Q315005" maxconnections="4" r="0.2800" fill="black" stroke="#06dede" stroke-width="0.105000" opacity="0.8" region="Bremen-Nord" />
			<text x="1920" y="-14029" name="Vegesack" wikidata="Q315005" maxconnections="4" fill="white" opacity="0.8" text-anchor="middle" font-size="0.63" region="Bremen-Nord">Vegesack (4)</text>
		</g>
		<g name="Bremen-Süd" wikidata="Q30145095">
			<polygon points="1925,-14013 1929,-14013 1930,-14012 1931,-14012 1934,-14011 1936,-14010 1937,-14009 1941,-14009 1942,-14008 1943,-14008 1943,-14007 1940,-14004 1940,-14000 1941,-13999 1941,-13998 1942,-13997 1944,-13996 1945,-13996 1945,-13995 1946,-13995 1947,-13994 1949,-13995 1950,-13995 1949,-13996 1949,-13997 1948,-13998 1948,-13999 1947,-13999 1947,-14002 1948,-14002 1948,-14004 1947,-14004 1947,-14005 1946,-14006 1946,-14007 1947,-14006 1947,-14005 1950,-14001 1952,-13999 1952,-13997 1953,-13997 1953,-13996 1954,-13996 1954,-13995 1955,-13995 1955,-13994 1956,-13994 1956,-13995 1957,-13996 1958,-13995 1959,-13995 1959,-13994 1960,-13994 1960,-13993 1962,-13992 1963,-13992 1963,-13991 1967,-13991 1967,-13990 1969,-13988 1973,-13988 1974,-13987 1976,-13987 1976,-13985 1975,-13984 1975,-13983 1974,-13982 1974,-13981 1973,-13981 1973,-13978 1974,-13977 1974,-13974 1971,-13974 1971,-13972 1970,-13972 1970,-13975 1969,-13975 1969,-13974 1968,-13974 1968,-13973 1967,-13973 1966,-13974 1963,-13974 1963,-13976 1962,-13976 1962,-13977 1961,-13977 1961,-13978 1959,-13978 1959,-13979 1957,-13979 1957,-13980 1954,-13980 1954,-13982 1953,-13982 1953,-13986 1952,-13985 1950,-13985 1951,-13984 1951,-13983 1950,-13983 1950,-13982 1949,-13982 1949,-13981 1950,-13981 1950,-13980 1948,-13980 1947,-13981 1946,-13981 1946,-13980 1944,-13980 1944,-13979 1945,-13979 1945,-13978 1944,-13978 1944,-13979 1943,-13979 1943,-13980 1942,-13980 1940,-13982 1939,-13982 1939,-13985 1938,-13985 1939,-13986 1939,-13994 1938,-13994 1938,-13996 1937,-13997 1935,-13997 1935,-13998 1931,-13998 1931,-13999 1930,-13999 1930,-14000 1929,-14000 1929,-14002 1930,-14003 1930,-14004 1929,-14005 1928,-14005 1928,-14006 1927,-14006 1927,-14009 1926,-14009 1926,-14012 1925,-14012 1925,-14013" fill="#1bf31b" stroke="black" stroke-width="0.1050" stroke-linecap="round" stroke-linejoin="round" opacity="0.8" region="Bremen-Süd" />
			<circle cx="1946" cy="-13985" name="Huchting" wikidata="Q882666" maxconnections="4" r="0.2800" fill="black" stroke="#1bf31b" stroke-width="0.105000" opacity="0.8" region="Bremen-Süd" />
			<text x="1946" y="-13985" name="Huchting" wikidata="Q882666" maxconnections="4" fill="white" opacity="0.8" text-anchor="middle" font-size="0.63" region="Bremen-Süd">Huchting (4)</text>
			<circle cx="1953" cy="-13995" name="Woltmershausen" wikidata="Q885348" maxconnections="4" r="0.2800" fill="black" stroke="#1bf31b" stroke-width="0.105000" opacity="0.8" region="Bremen-Süd" />
			<text x="1953" y="-13995" name="Woltmershausen" wikidata="Q885348" maxconnections="4" fill="white" opacity="0.8" text-anchor="middle" font-size="0.63" region="Bremen-Süd">Woltmershausen (4)</text>
			<circle cx="1940" cy="-14007" name="Seehausen" wikidata="Q2264940" maxconnections="2" r="0.1400" fill="black" stroke="#1bf31b" stroke-width="0.105000" opacity="0.8" region="Bremen-Süd" />
			<text x="1940" y="-14007" name="Seehausen" wikidata="Q2264940" maxconnections="2" fill="white" opacity="0.8" text-anchor="middle" font-size="0.63" region="Bremen-Süd">Seehausen (2)</text>
			<circle cx="1968" cy="-13980" name="Obervieland" wikidata="Q882699" maxconnections="5" r="0.3500" fill="black" stroke="#1bf31b" stroke-width="0.105000" opacity="0.8" region="Bremen-Süd" />
			<text x="1968" y="-13980" name="Obervieland" wikidata="Q882699" maxconnections="5" fill="white" opacity="0.8" text-anchor="middle" font-size="0.63" region="Bremen-Süd">Obervieland (5)</text>
			<circle cx="1958" cy="-13992" name="Neustadt" wikidata="Q882771" maxconnections="5" r="0.3500" fill="black" stroke="#1bf31b" stroke-width="0.105000" opacity="0.8" region="Bremen-Süd" />
			<text x="1958" y="-13992" name="Neustadt" wikidata="Q882771" maxconnections="5" fill="white" opacity="0.8" text-anchor="middle" font-size="0.63" region="Bremen-Süd">Neustadt (5)</text>
			<circle cx="1956" cy="-13992" name="Hohentor" wikidata="Q114645078" maxconnections="3" r="0.2100" fill="black" stroke="#1bf31b" stroke-width="0.105000" opacity="0.8" region="Bremen-Süd" />
			<text x="1956" y="-13992" name="Hohentor" wikidata="Q114645078" maxconnections="3" fill="white" opacity="0.8" text-anchor="middle" font-size="0.63" region="Bremen-Süd">Hohentor (3)</text>
		</g>
		<g name="Bremen-Ost" wikidata="Q30147400">
			<polygon points="1962,-13999 1962,-14000 1963,-14000 1964,-14001 1964,-14002 1965,-14002 1965,-14005 1964,-14005 1965,-14006 1965,-14007 1964,-14008 1963,-14008 1963,-14009 1971,-14009 1971,-14010 1973,-14013 1973,-14014 1974,-14014 1974,-14015 1979,-14015 1979,-14016 1981,-14016 1982,-14017 1983,-14017 1983,-14015 1984,-14015 1985,-14016 1985,-14018 1986,-14018 1986,-14020 1988,-14020 1988,-14021 1989,-14021 1989,-14022 1992,-14022 1993,-14021 1994,-14021 1994,-14020 1996,-14018 1996,-14017 1997,-14017 1997,-14015 1999,-14015 1999,-14014 2000,-14013 2000,-14012 1998,-14012 1998,-14011 1996,-14011 1995,-14010 1992,-14010 1992,-14009 1993,-14008 1994,-14008 1994,-14007 1995,-14007 1995,-14003 1997,-14003 1997,-14004 1999,-14003 1999,-14002 2001,-14002 2001,-14001 2000,-14001 2000,-14000 1997,-14000 1997,-13999 1996,-13999 1996,-13998 1995,-13998 1995,-13997 1996,-13997 1996,-13987 1997,-13987 1997,-13986 1998,-13986 1998,-13985 1999,-13985 1999,-13982 1998,-13981 1997,-13981 1997,-13980 1996,-13980 1995,-13979 1993,-13979 1993,-13977 1992,-13977 1992,-13975 1990,-13975 1990,-13973 1989,-13971 1987,-13971 1986,-13972 1986,-13971 1985,-13971 1985,-13970 1983,-13970 1983,-13971 1980,-13971 1980,-13972 1979,-13972 1979,-13974 1978,-13974 1978,-13975 1977,-13975 1977,-13976 1976,-13976 1976,-13977 1975,-13977 1975,-13978 1974,-13978 1974,-13982 1975,-13983 1975,-13984 1976,-13985 1976,-13987 1974,-13987 1973,-13988 1969,-13988 1967,-13990 1967,-13991 1965,-13991 1965,-13992 1964,-13993 1964,-13994 1965,-13995 1965,-13996 1963,-13996 1963,-13999 1962,-13999" fill="#e802e8" stroke="black" stroke-width="0.1050" stroke-linecap="round" stroke-linejoin="round" opacity="0.8" region="Bremen-Ost" />
			<circle cx="1968" cy="-13992" name="Östliche Vorstadt" wikidata="Q307050" maxconnections="4" r="0.2800" fill="black" stroke="#e802e8" stroke-width="0.105000" opacity="0.8" region="Bremen-Ost" />
			<text x="1968" y="-13992" name="Östliche Vorstadt" wikidata="Q307050" maxconnections="4" fill="white" opacity="0.8" text-anchor="middle" font-size="0.63" region="Bremen-Ost">Östliche Vorstadt (4)</text>
			<circle cx="1992" cy="-13979" name="Mahndorf" wikidata="Q102279395" maxconnections="3" r="0.2100" fill="black" stroke="#e802e8" stroke-width="0.105000" opacity="0.8" region="Bremen-Ost" />
			<text x="1992" y="-13979" name="Mahndorf" wikidata="Q102279395" maxconnections="3" fill="white" opacity="0.8" text-anchor="middle" font-size="0.63" region="Bremen-Ost">Mahndorf (3)</text>
			<circle cx="1978" cy="-13987" name="Hemelingen" wikidata="Q884571" maxconnections="5" r="0.3500" fill="black" stroke="#e802e8" stroke-width="0.105000" opacity="0.8" region="Bremen-Ost" />
			<text x="1978" y="-13987" name="Hemelingen" wikidata="Q884571" maxconnections="5" fill="white" opacity="0.8" text-anchor="middle" font-size="0.63" region="Bremen-Ost">Hemelingen (5)</text>
			<circle cx="1993" cy="-13987" name="Osterholz" wikidata="Q2035210" maxconnections="5" r="0.3500" fill="black" stroke="#e802e8" stroke-width="0.105000" opacity="0.8" region="Bremen-Ost" />
			<text x="1993" y="-13987" name="Osterholz" wikidata="Q2035210" maxconnections="5" fill="white" opacity="0.8" text-anchor="middle" font-size="0.63" region="Bremen-Ost">Osterholz (5)</text>
			<circle cx="1967" cy="-13998" name="Schwachhausen" wikidata="Q897322" maxconnections="5" r="0.3500" fill="black" stroke="#e802e8" stroke-width="0.105000" opacity="0.8" region="Bremen-Ost" />
			<text x="1967" y="-13998" name="Schwachhausen" wikidata="Q897322" maxconnections="5" fill="white" opacity="0.8" text-anchor="middle" font-size="0.63" region="Bremen-Ost">Schwachhausen (5)</text>
			<circle cx="1983" cy="-14012" name="Borgfeld" wikidata="Q317123" maxconnections="3" r="0.2100" fill="black" stroke="#e802e8" stroke-width="0.105000" opacity="0.8" region="Bremen-Ost" />
			<text x="1983" y="-14012" name="Borgfeld" wikidata="Q317123" maxconnections="3" fill="white" opacity="0.8" text-anchor="middle" font-size="0.63" region="Bremen-Ost">Borgfeld (3)</text>
			<circle cx="1990" cy="-13999" name="Oberneuland" wikidata="Q882654" maxconnections="4" r="0.2800" fill="black" stroke="#e802e8" stroke-width="0.105000" opacity="0.8" region="Bremen-Ost" />
			<text x="1990" y="-13999" name="Oberneuland" wikidata="Q882654" maxconnections="4" fill="white" opacity="0.8" text-anchor="middle" font-size="0.63" region="Bremen-Ost">Oberneuland (4)</text>
			<circle cx="1977" cy="-14004" name="Horn-Lehe" wikidata="Q1628274" maxconnections="4" r="0.2800" fill="black" stroke="#e802e8" stroke-width="0.105000" opacity="0.8" region="Bremen-Ost" />
			<text x="1977" y="-14004" name="Horn-Lehe" wikidata="Q1628274" maxconnections="4" fill="white" opacity="0.8" text-anchor="middle" font-size="0.63" region="Bremen-Ost">Horn-Lehe (4)</text>
			<circle cx="1976" cy="-13995" name="Vahr" wikidata="Q2507385" maxconnections="4" r="0.2800" fill="black" stroke="#e802e8" stroke-width="0.105000" opacity="0.8" region="Bremen-Ost" />
			<text x="1976" y="-13995" name="Vahr" wikidata="Q2507385" maxconnections="4" fill="white" opacity="0.8" text-anchor="middle" font-size="0.63" region="Bremen-Ost">Vahr (4)</text>
		</g>
		<g name="Stadtbezirk Bremerhaven-Nord" wikidata="Q15627784">
			<polygon points="1889,-14189 1889,-14190 1891,-14190 1893,-14191 1894,-14191 1897,-14192 1899,-14192 1900,-14191 1900,-14192 1902,-14192 1903,-14191 1905,-14191 1906,-14190 1908,-14190 1910,-14189 1911,-14188 1913,-14187 1914,-14187 1914,-14188 1916,-14188 1916,-14189 1918,-14191 1920,-14191 1920,-14192 1923,-14191 1924,-14191 1925,-14190 1925,-14191 1927,-14191 1925,-14189 1924,-14189 1924,-14188 1923,-14188 1924,-14187 1923,-14187 1923,-14186 1922,-14186 1922,-14185 1920,-14183 1920,-14182 1919,-14181 1919,-14179 1920,-14179 1920,-14177 1921,-14176 1921,-14174 1922,-14173 1921,-14173 1919,-14171 1917,-14171 1916,-14172 1911,-14172 1911,-14171 1913,-14171 1913,-14169 1912,-14169 1912,-14170 1911,-14170 1910,-14169 1912,-14169 1912,-14167 1911,-14167 1911,-14166 1909,-14166 1909,-14165 1906,-14164 1904,-14166 1904,-14167 1900,-14171 1896,-14176 1893,-14179 1891,-14186 1889,-14189" fill="#f41e1e" stroke="black" stroke-width="0.1050" stroke-linecap="round" stroke-linejoin="round" opacity="0.8" region="Stadtbezirk Bremerhaven-Nord" />
			<polygon points="1927,-14190 1927,-14191 1925,-14191 1924,-14192 1925,-14192 1925,-14193 1928,-14193 1928,-14192 1927,-14191 1927,-14190" fill="#f41e1e" stroke="black" stroke-width="0.1050" stroke-linecap="round" stroke-linejoin="round" opacity="0.8" region="Stadtbezirk Bremerhaven-Nord" />
		</g>
		<g name="Bremen-West" wikidata="Q30147399">
			<polygon points="1940,-14017 1941,-14018 1941,-14019 1942,-14019 1943,-14018 1944,-14018 1944,-14024 1943,-14024 1943,-14025 1942,-14025 1942,-14026 1943,-14026 1943,-14028 1945,-14028 1945,-14029 1946,-14029 1946,-14030 1947,-14030 1947,-14029 1946,-14029 1946,-14027 1951,-14027 1951,-14026 1952,-14026 1952,-14025 1954,-14025 1954,-14026 1955,-14026 1955,-14027 1957,-14025 1957,-14027 1958,-14026 1959,-14027 1959,-14026 1962,-14026 1962,-14027 1963,-14027 1963,-14026 1964,-14026 1964,-14027 1965,-14026 1965,-14027 1966,-14027 1966,-14026 1965,-14026 1966,-14025 1967,-14025 1967,-14024 1968,-14024 1968,-14021 1969,-14021 1969,-14020 1970,-14020 1970,-14019 1971,-14019 1971,-14018 1972,-14018 1972,-14017 1973,-14017 1973,-14015 1974,-14014 1973,-14014 1973,-14013 1971,-14010 1971,-14009 1963,-14009 1963,-14008 1964,-14008 1965,-14007 1965,-14006 1964,-14005 1965,-14005 1965,-14002 1964,-14002 1964,-14001 1963,-14000 1962,-14000 1962,-13999 1963,-13999 1963,-13997 1962,-13997 1962,-13998 1961,-13998 1959,-14000 1959,-13998 1958,-13998 1958,-13997 1957,-13996 1954,-13996 1954,-13997 1953,-13998 1952,-13998 1952,-13999 1950,-14001 1947,-14005 1948,-14006 1948,-14008 1949,-14008 1949,-14010 1948,-14011 1947,-14011 1947,-14012 1946,-14012 1946,-14013 1945,-14013 1944,-14014 1943,-14014 1943,-14015 1942,-14015 1942,-14016 1940,-14016 1940,-14017" fill="#dfdf05" stroke="black" stroke-width="0.1050" stroke-linecap="round" stroke-linejoin="round" opacity="0.8" region="Bremen-West" />
			<circle cx="1955" cy="-14001" name="Steffensweg" wikidata="Q102177507" maxconnections="3" r="0.2100" fill="black" stroke="#dfdf05" stroke-width="0.105000" opacity="0.8" region="Bremen-West" />
			<text x="1955" y="-14001" name="Steffensweg" wikidata="Q102177507" maxconnections="3" fill="white" opacity="0.8" text-anchor="middle" font-size="0.63" region="Bremen-West">Steffensweg (3)</text>
			<circle cx="1959" cy="-14019" name="Blockland" wikidata="Q317132" maxconnections="2" r="0.1400" fill="black" stroke="#dfdf05" stroke-width="0.105000" opacity="0.8" region="Bremen-West" />
			<text x="1959" y="-14019" name="Blockland" wikidata="Q317132" maxconnections="2" fill="white" opacity="0.8" text-anchor="middle" font-size="0.63" region="Bremen-West">Blockland (2)</text>
			<circle cx="1951" cy="-14009" name="Gröpelingen" wikidata="Q884554" maxconnections="4" r="0.2800" fill="black" stroke="#dfdf05" stroke-width="0.105000" opacity="0.8" region="Bremen-West" />
			<text x="1951" y="-14009" name="Gröpelingen" wikidata="Q884554" maxconnections="4" fill="white" opacity="0.8" text-anchor="middle" font-size="0.63" region="Bremen-West">Gröpelingen (4)</text>
			<circle cx="1953" cy="-14001" name="Überseestadt" wikidata="Q333546" maxconnections="2" r="0.1400" fill="black" stroke="#dfdf05" stroke-width="0.105000" opacity="0.8" region="Bremen-West" />
			<text x="1953" y="-14001" name="Überseestadt" wikidata="Q333546" maxconnections="2" fill="white" opacity="0.8" text-anchor="middle" font-size="0.63" region="Bremen-West">Überseestadt (2)</text>
			<circle cx="1961" cy="-14001" name="Findorff" wikidata="Q882727" maxconnections="4" r="0.2800" fill="black" stroke="#dfdf05" stroke-width="0.105000" opacity="0.8" region="Bremen-West" />
			<text x="1961" y="-14001" name="Findorff" wikidata="Q882727" maxconnections="4" fill="white" opacity="0.8" text-anchor="middle" font-size="0.63" region="Bremen-West">Findorff (4)</text>
			<circle cx="1958" cy="-14008" name="Hohweg" wikidata="Q102177531" maxconnections="2" r="0.1400" fill="black" stroke="#dfdf05" stroke-width="0.105000" opacity="0.8" region="Bremen-West" />
			<text x="1958" y="-14008" name="Hohweg" wikidata="Q102177531" maxconnections="2" fill="white" opacity="0.8" text-anchor="middle" font-size="0.63" region="Bremen-West">Hohweg (2)</text>
			<circle cx="1958" cy="-13999" name="Utbremen" wikidata="Q102177511" maxconnections="3" r="0.2100" fill="black" stroke="#dfdf05" stroke-width="0.105000" opacity="0.8" region="Bremen-West" />
			<text x="1958" y="-13999" name="Utbremen" wikidata="Q102177511" maxconnections="3" fill="white" opacity="0.8" text-anchor="middle" font-size="0.63" region="Bremen-West">Utbremen (3)</text>
			<circle cx="1958" cy="-14004" name="Osterfeuerberg" wikidata="Q102177528" maxconnections="3" r="0.2100" fill="black" stroke="#dfdf05" stroke-width="0.105000" opacity="0.8" region="Bremen-West" />
			<text x="1958" y="-14004" name="Osterfeuerberg" wikidata="Q102177528" maxconnections="3" fill="white" opacity="0.8" text-anchor="middle" font-size="0.63" region="Bremen-West">Osterfeuerberg (3)</text>
			<circle cx="1958" cy="-14001" name="Westend" wikidata="Q102177521" maxconnections="3" r="0.2100" fill="black" stroke="#dfdf05" stroke-width="0.105000" opacity="0.8" region="Bremen-West" />
			<text x="1958" y="-14001" name="Westend" wikidata="Q102177521" maxconnections="3" fill="white" opacity="0.8" text-anchor="middle" font-size="0.63" region="Bremen-West">Westend (3)</text>
			<circle cx="1955" cy="-14004" name="Walle" wikidata="Q317722" maxconnections="4" r="0.2800" fill="black" stroke="#dfdf05" stroke-width="0.105000" opacity="0.8" region="Bremen-West" />
			<text x="1955" y="-14004" name="Walle" wikidata="Q317722" maxconnections="4" fill="white" opacity="0.8" text-anchor="middle" font-size="0.63" region="Bremen-West">Walle (4)</text>
		</g>
	</g>
	<g endinglength="628" />
</svg>