<svg width="234" height="180" viewBox="1415 -12768 234 180" xmlns="http://www.w3.org/2000/svg">
	<!--
    Data Credits: OpenStreetMap contributors (https://www.openstreetmap.org/copyright/)
    License: Open Data Commons Open Database License (https://opendatacommons.org/licenses/odbl/1-0/)
-->
	<g>
		<g name="Landkreis Merzig-Wadern" wikidata="Q6802">
			<polygon points="1416,-12728 1416,-12730 1415,-12730 1415,-12731 1416,-12731 1416,-12733 1417,-12733 1417,-12734 1418,-12734 1418,-12735 1419,-12735 1419,-12736 1420,-12736 1420,-12737 1428,-12737 1428,-12735 1429,-12735 1429,-12736 1430,-12736 1430,-12737 1433,-12737 1433,-12736 1434,-12736 1434,-12735 1435,-12735 1436,-12736 1436,-12733 1437,-12734 1438,-12734 1438,-12735 1440,-12735 1440,-12736 1441,-12735 1442,-12735 1442,-12734 1443,-12734 1443,-12733 1444,-12733 1444,-12732 1445,-12731 1447,-12731 1448,-12732 1450,-12732 1450,-12731 1451,-12731 1450,-12730 1453,-12730 1453,-12732 1454,-12732 1456,-12734 1456,-12733 1461,-12733 1461,-12734 1462,-12733 1463,-12733 1463,-12732 1464,-12732 1464,-12731 1465,-12730 1465,-12728 1466,-12727 1467,-12727 1467,-12726 1468,-12726 1468,-12727 1470,-12727 1470,-12726 1471,-12726 1471,-12727 1472,-12727 1472,-12729 1471,-12729 1471,-12730 1474,-12730 1474,-12732 1473,-12732 1474,-12733 1476,-12733 1476,-12734 1477,-12735 1478,-12734 1480,-12734 1480,-12735 1481,-12735 1481,-12738 1482,-12737 1482,-12735 1485,-12735 1485,-12736 1487,-12736 1488,-12737 1488,-12735 1489,-12735 1489,-12732 1490,-12732 1490,-12734 1492,-12734 1492,-12736 1493,-12736 1493,-12738 1494,-12738 1494,-12739 1497,-12739 1497,-12740 1498,-12740 1499,-12741 1499,-12740 1503,-12740 1503,-12741 1504,-12741 1507,-12744 1509,-12744 1511,-12746 1512,-12748 1515,-12751 1516,-12751 1517,-12752 1519,-12750 1521,-12750 1521,-12749 1522,-12749 1523,-12750 1523,-12752 1524,-12752 1525,-12754 1528,-12757 1530,-12757 1530,-12756 1531,-12756 1531,-12757 1532,-12757 1533,-12758 1533,-12759 1534,-12759 1534,-12757 1535,-12757 1535,-12754 1537,-12752 1538,-12752 1538,-12753 1542,-12753 1542,-12754 1546,-12754 1546,-12753 1548,-12753 1549,-12754 1549,-12752 1548,-12752 1548,-12751 1549,-12751 1549,-12750 1548,-12749 1548,-12748 1549,-12748 1549,-12747 1548,-12747 1548,-12746 1547,-12746 1547,-12745 1548,-12745 1548,-12744 1547,-12743 1549,-12743 1549,-12742 1550,-12742 1550,-12740 1549,-12740 1549,-12739 1548,-12739 1549,-12738 1549,-12732 1548,-12732 1548,-12730 1549,-12729 1549,-12728 1548,-12727 1549,-12727 1549,-12724 1546,-12724 1546,-12723 1544,-12723 1544,-12722 1541,-12722 1541,-12723 1540,-12723 1540,-12722 1539,-12722 1539,-12721 1538,-12721 1538,-12719 1537,-12719 1537,-12718 1536,-12718 1536,-12717 1534,-12717 1534,-12716 1533,-12716 1533,-12715 1532,-12715 1532,-12714 1531,-12714 1531,-12713 1530,-12713 1530,-12714 1525,-12714 1525,-12713 1524,-12713 1523,-12712 1522,-12712 1522,-12711 1520,-12711 1520,-12710 1518,-12710 1517,-12711 1515,-12711 1515,-12710 1514,-12709 1514,-12707 1513,-12706 1514,-12706 1514,-12705 1513,-12705 1513,-12704 1514,-12704 1514,-12703 1513,-12703 1513,-12701 1512,-12700 1512,-12699 1511,-12699 1511,-12698 1512,-12698 1513,-12697 1513,-12692 1514,-12691 1513,-12691 1513,-12690 1511,-12688 1510,-12688 1510,-12687 1506,-12687 1505,-12686 1504,-12686 1504,-12685 1503,-12684 1502,-12684 1502,-12685 1501,-12685 1501,-12684 1500,-12684 1500,-12683 1499,-12683 1499,-12682 1498,-12682 1498,-12681 1496,-12681 1496,-12680 1495,-12679 1495,-12678 1493,-12678 1493,-12677 1490,-12677 1490,-12678 1491,-12678 1491,-12679 1490,-12680 1489,-12680 1489,-12681 1488,-12681 1487,-12682 1485,-12682 1485,-12684 1484,-12684 1484,-12685 1483,-12685 1483,-12686 1481,-12688 1481,-12689 1480,-12689 1479,-12690 1477,-12690 1477,-12689 1475,-12689 1475,-12687 1471,-12687 1471,-12686 1470,-12686 1470,-12685 1468,-12686 1466,-12686 1466,-12687 1465,-12688 1465,-12689 1464,-12690 1464,-12691 1463,-12691 1463,-12692 1462,-12692 1462,-12691 1461,-12692 1460,-12692 1460,-12693 1459,-12693 1459,-12695 1458,-12695 1457,-12696 1457,-12697 1456,-12697 1455,-12698 1452,-12698 1452,-12699 1451,-12699 1451,-12700 1450,-12700 1449,-12701 1449,-12702 1448,-12702 1448,-12703 1445,-12703 1445,-12704 1443,-12704 1443,-12705 1442,-12705 1442,-12706 1441,-12707 1441,-12708 1436,-12708 1436,-12709 1433,-12709 1433,-12710 1432,-12711 1432,-12712 1429,-12712 1429,-12711 1428,-12711 1428,-12710 1427,-12710 1427,-12709 1425,-12709 1425,-12708 1421,-12708 1421,-12709 1420,-12709 1421,-12708 1419,-12708 1419,-12710 1418,-12710 1418,-12723 1417,-12723 1417,-12727 1416,-12727 1416,-12728" fill="#e802e8" stroke="black" stroke-width="0.3500" stroke-linecap="round" stroke-linejoin="round" opacity="0.8" region="Landkreis Merzig-Wadern" />
			<circle cx="1522" cy="-12718" name="Nunkirchen" wikidata="Q338776" maxconnections="3" r="0.7000" fill="black" stroke="#e802e8" stroke-width="0.350000" opacity="0.8" region="Landkreis Merzig-Wadern" />
			<text x="1522" y="-12718" name="Nunkirchen" wikidata="Q338776" maxconnections="3" fill="white" opacity="0.8" text-anchor="middle" font-size="2.1" region="Landkreis Merzig-Wadern">Nunkirchen (3)</text>
			<circle cx="1528" cy="-12718" name="Büschfeld" wikidata="Q1021777" maxconnections="2" r="0.4667" fill="black" stroke="#e802e8" stroke-width="0.350000" opacity="0.8" region="Landkreis Merzig-Wadern" />
			<text x="1528" y="-12718" name="Büschfeld" wikidata="Q1021777" maxconnections="2" fill="white" opacity="0.8" text-anchor="middle" font-size="2.1" region="Landkreis Merzig-Wadern">Büschfeld (2)</text>
			<circle cx="1493" cy="-12682" name="Beckingen" wikidata="Q559689" maxconnections="4" r="0.9333" fill="black" stroke="#e802e8" stroke-width="0.350000" opacity="0.8" region="Landkreis Merzig-Wadern" />
			<text x="1493" y="-12682" name="Beckingen" wikidata="Q559689" maxconnections="4" fill="white" opacity="0.8" text-anchor="middle" font-size="2.1" region="Landkreis Merzig-Wadern">Beckingen (4)</text>
			<circle cx="1454" cy="-12722" name="Orscholz" wikidata="Q1656236" maxconnections="3" r="0.7000" fill="black" stroke="#e802e8" stroke-width="0.350000" opacity="0.8" region="Landkreis Merzig-Wadern" />
			<text x="1454" y="-12722" name="Orscholz" wikidata="Q1656236" maxconnections="3" fill="white" opacity="0.8" text-anchor="middle" font-size="2.1" region="Landkreis Merzig-Wadern">Orscholz (3)</text>
			<circle cx="1468" cy="-12717" name="Mettlach" wikidata="Q543627" maxconnections="4" r="0.9333" fill="black" stroke="#e802e8" stroke-width="0.350000" opacity="0.8" region="Landkreis Merzig-Wadern" />
			<text x="1468" y="-12717" name="Mettlach" wikidata="Q543627" maxconnections="4" fill="white" opacity="0.8" text-anchor="middle" font-size="2.1" region="Landkreis Merzig-Wadern">Mettlach (4)</text>
			<circle cx="1422" cy="-12711" name="Perl" wikidata="Q662505" maxconnections="3" r="0.7000" fill="black" stroke="#e802e8" stroke-width="0.350000" opacity="0.8" region="Landkreis Merzig-Wadern" />
			<text x="1422" y="-12711" name="Perl" wikidata="Q662505" maxconnections="3" fill="white" opacity="0.8" text-anchor="middle" font-size="2.1" region="Landkreis Merzig-Wadern">Perl (3)</text>
			<circle cx="1478" cy="-12701" name="Merzig" wikidata="Q16130" maxconnections="5" r="1.1667" fill="black" stroke="#e802e8" stroke-width="0.350000" opacity="0.8" region="Landkreis Merzig-Wadern" />
			<text x="1478" y="-12701" name="Merzig" wikidata="Q16130" maxconnections="5" fill="white" opacity="0.8" text-anchor="middle" font-size="2.1" region="Landkreis Merzig-Wadern">Merzig (5)</text>
			<circle cx="1534" cy="-12734" name="Wadern" wikidata="Q529164" maxconnections="4" r="0.9333" fill="black" stroke="#e802e8" stroke-width="0.350000" opacity="0.8" region="Landkreis Merzig-Wadern" />
			<text x="1534" y="-12734" name="Wadern" wikidata="Q529164" maxconnections="4" fill="white" opacity="0.8" text-anchor="middle" font-size="2.1" region="Landkreis Merzig-Wadern">Wadern (4)</text>
			<circle cx="1487" cy="-12711" name="Brotdorf" wikidata="Q990748" maxconnections="3" r="0.7000" fill="black" stroke="#e802e8" stroke-width="0.350000" opacity="0.8" region="Landkreis Merzig-Wadern" />
			<text x="1487" y="-12711" name="Brotdorf" wikidata="Q990748" maxconnections="3" fill="white" opacity="0.8" text-anchor="middle" font-size="2.1" region="Landkreis Merzig-Wadern">Brotdorf (3)</text>
			<circle cx="1502" cy="-12723" name="Losheim am See" wikidata="Q629682" maxconnections="4" r="0.9333" fill="black" stroke="#e802e8" stroke-width="0.350000" opacity="0.8" region="Landkreis Merzig-Wadern" />
			<text x="1502" y="-12723" name="Losheim am See" wikidata="Q629682" maxconnections="4" fill="white" opacity="0.8" text-anchor="middle" font-size="2.1" region="Landkreis Merzig-Wadern">Losheim am See (4)</text>
			<circle cx="1518" cy="-12740" name="Weiskirchen" wikidata="Q570294" maxconnections="3" r="0.7000" fill="black" stroke="#e802e8" stroke-width="0.350000" opacity="0.8" region="Landkreis Merzig-Wadern" />
			<text x="1518" y="-12740" name="Weiskirchen" wikidata="Q570294" maxconnections="3" fill="white" opacity="0.8" text-anchor="middle" font-size="2.1" region="Landkreis Merzig-Wadern">Weiskirchen (3)</text>
			<circle cx="1529" cy="-12723" name="Bardenbach" wikidata="Q807995" maxconnections="2" r="0.4667" fill="black" stroke="#e802e8" stroke-width="0.350000" opacity="0.8" region="Landkreis Merzig-Wadern" />
			<text x="1529" y="-12723" name="Bardenbach" wikidata="Q807995" maxconnections="2" fill="white" opacity="0.8" text-anchor="middle" font-size="2.1" region="Landkreis Merzig-Wadern">Bardenbach (2)</text>
		</g>
		<g name="Landkreis Saarlouis" wikidata="Q6794">
			<polygon points="1456,-12686 1456,-12689 1455,-12689 1456,-12690 1456,-12691 1457,-12691 1457,-12692 1461,-12692 1462,-12691 1462,-12692 1463,-12692 1463,-12691 1464,-12691 1464,-12690 1465,-12689 1465,-12688 1466,-12687 1466,-12686 1468,-12686 1470,-12685 1470,-12686 1471,-12686 1471,-12687 1475,-12687 1475,-12689 1477,-12689 1477,-12690 1479,-12690 1480,-12689 1481,-12689 1481,-12688 1483,-12686 1483,-12685 1484,-12685 1484,-12684 1485,-12684 1485,-12682 1487,-12682 1488,-12681 1489,-12681 1489,-12680 1490,-12680 1491,-12679 1491,-12678 1490,-12678 1490,-12677 1493,-12677 1493,-12678 1495,-12678 1495,-12679 1496,-12680 1496,-12681 1498,-12681 1498,-12682 1499,-12682 1499,-12683 1500,-12683 1500,-12684 1501,-12684 1501,-12685 1502,-12685 1502,-12684 1503,-12684 1504,-12685 1504,-12686 1505,-12686 1506,-12687 1510,-12687 1510,-12688 1511,-12688 1513,-12690 1513,-12691 1514,-12691 1513,-12692 1513,-12697 1512,-12698 1511,-12698 1511,-12699 1512,-12699 1512,-12700 1513,-12701 1513,-12703 1514,-12703 1514,-12704 1513,-12704 1513,-12705 1514,-12705 1514,-12706 1513,-12706 1514,-12707 1514,-12709 1515,-12710 1515,-12711 1517,-12711 1518,-12710 1520,-12710 1520,-12711 1522,-12711 1522,-12712 1523,-12712 1524,-12713 1525,-12713 1525,-12714 1530,-12714 1530,-12713 1531,-12713 1531,-12714 1532,-12714 1532,-12715 1533,-12715 1533,-12716 1534,-12716 1534,-12717 1536,-12717 1536,-12718 1537,-12718 1537,-12719 1538,-12719 1538,-12721 1539,-12721 1539,-12720 1540,-12720 1540,-12718 1541,-12718 1541,-12717 1542,-12717 1542,-12716 1541,-12716 1541,-12715 1539,-12715 1539,-12713 1540,-12713 1540,-12711 1541,-12711 1541,-12710 1543,-12710 1543,-12711 1545,-12711 1547,-12713 1548,-12715 1550,-12715 1550,-12716 1552,-12716 1552,-12714 1551,-12714 1551,-12713 1552,-12713 1552,-12710 1553,-12710 1553,-12708 1552,-12707 1552,-12706 1553,-12706 1553,-12705 1554,-12704 1554,-12703 1555,-12703 1555,-12701 1556,-12701 1556,-12698 1554,-12698 1553,-12697 1551,-12697 1550,-12696 1549,-12696 1550,-12695 1548,-12695 1548,-12694 1547,-12694 1547,-12695 1546,-12695 1546,-12694 1545,-12694 1545,-12695 1544,-12695 1543,-12696 1543,-12694 1542,-12694 1541,-12693 1541,-12691 1540,-12691 1540,-12690 1541,-12690 1541,-12688 1542,-12688 1542,-12687 1543,-12687 1543,-12686 1541,-12686 1541,-12685 1544,-12685 1544,-12684 1545,-12684 1545,-12683 1544,-12683 1544,-12682 1545,-12682 1545,-12679 1546,-12679 1546,-12678 1545,-12678 1545,-12677 1544,-12677 1544,-12678 1543,-12678 1543,-12675 1541,-12675 1541,-12674 1539,-12674 1539,-12673 1538,-12673 1538,-12672 1537,-12671 1536,-12671 1536,-12670 1534,-12670 1534,-12669 1532,-12669 1532,-12668 1531,-12668 1530,-12667 1530,-12666 1531,-12666 1531,-12664 1532,-12664 1532,-12662 1531,-12662 1531,-12659 1532,-12659 1532,-12657 1531,-12656 1531,-12653 1532,-12652 1531,-12651 1530,-12651 1530,-12650 1529,-12649 1529,-12650 1528,-12650 1528,-12651 1527,-12650 1528,-12650 1528,-12649 1529,-12649 1529,-12648 1527,-12648 1527,-12646 1526,-12646 1526,-12644 1527,-12644 1527,-12643 1526,-12643 1526,-12642 1523,-12642 1522,-12643 1519,-12643 1519,-12642 1518,-12642 1519,-12641 1520,-12641 1520,-12640 1521,-12640 1521,-12639 1522,-12638 1522,-12637 1519,-12637 1519,-12635 1518,-12635 1517,-12633 1516,-12632 1516,-12631 1513,-12631 1514,-12630 1514,-12629 1513,-12630 1512,-12630 1511,-12629 1510,-12627 1509,-12626 1502,-12626 1501,-12627 1500,-12627 1499,-12626 1498,-12626 1498,-12625 1497,-12624 1497,-12625 1495,-12625 1495,-12624 1494,-12624 1493,-12623 1490,-12623 1490,-12624 1489,-12625 1489,-12628 1490,-12628 1489,-12629 1489,-12631 1488,-12631 1488,-12633 1489,-12633 1489,-12634 1490,-12634 1489,-12635 1488,-12635 1488,-12636 1487,-12636 1487,-12637 1485,-12637 1485,-12636 1484,-12636 1483,-12637 1483,-12640 1484,-12640 1484,-12642 1485,-12642 1484,-12643 1484,-12644 1485,-12644 1485,-12645 1484,-12645 1484,-12646 1482,-12646 1482,-12645 1481,-12645 1481,-12648 1479,-12648 1479,-12649 1478,-12650 1478,-12651 1477,-12650 1477,-12651 1476,-12651 1476,-12652 1475,-12652 1475,-12653 1472,-12653 1472,-12654 1471,-12654 1471,-12656 1470,-12656 1470,-12657 1469,-12657 1467,-12659 1467,-12660 1468,-12661 1468,-12663 1467,-12664 1464,-12664 1464,-12666 1463,-12666 1463,-12667 1462,-12667 1462,-12670 1461,-12671 1462,-12671 1463,-12672 1464,-12672 1464,-12671 1466,-12671 1466,-12669 1467,-12669 1467,-12671 1468,-12671 1468,-12672 1469,-12672 1469,-12673 1470,-12675 1469,-12675 1469,-12676 1467,-12676 1466,-12675 1466,-12680 1467,-12680 1467,-12681 1465,-12681 1465,-12682 1461,-12682 1461,-12683 1460,-12684 1459,-12684 1459,-12686 1457,-12686 1457,-12687 1456,-12686" fill="#1b1bf3" stroke="black" stroke-width="0.3500" stroke-linecap="round" stroke-linejoin="round" opacity="0.8" region="Landkreis Saarlouis" />
			<circle cx="1511" cy="-12679" name="Nalbach" wikidata="Q553221" maxconnections="4" r="0.9333" fill="black" stroke="#1b1bf3" stroke-width="0.350000" opacity="0.8" region="Landkreis Saarlouis" />
			<text x="1511" y="-12679" name="Nalbach" wikidata="Q553221" maxconnections="4" fill="white" opacity="0.8" text-anchor="middle" font-size="2.1" region="Landkreis Saarlouis">Nalbach (4)</text>
			<circle cx="1512" cy="-12639" name="Wadgassen" wikidata="Q253419" maxconnections="5" r="1.1667" fill="black" stroke="#1b1bf3" stroke-width="0.350000" opacity="0.8" region="Landkreis Saarlouis" />
			<text x="1512" y="-12639" name="Wadgassen" wikidata="Q253419" maxconnections="5" fill="white" opacity="0.8" text-anchor="middle" font-size="2.1" region="Landkreis Saarlouis">Wadgassen (5)</text>
			<circle cx="1497" cy="-12671" name="Dillingen/Saar" wikidata="Q158408" maxconnections="5" r="1.1667" fill="black" stroke="#1b1bf3" stroke-width="0.350000" opacity="0.8" region="Landkreis Saarlouis" />
			<text x="1497" y="-12671" name="Dillingen/Saar" wikidata="Q158408" maxconnections="5" fill="white" opacity="0.8" text-anchor="middle" font-size="2.1" region="Landkreis Saarlouis">Dillingen/Saar (5)</text>
			<circle cx="1509" cy="-12653" name="Ensdorf/Saar" wikidata="Q375399" maxconnections="3" r="0.7000" fill="black" stroke="#1b1bf3" stroke-width="0.350000" opacity="0.8" region="Landkreis Saarlouis" />
			<text x="1509" y="-12653" name="Ensdorf/Saar" wikidata="Q375399" maxconnections="3" fill="white" opacity="0.8" text-anchor="middle" font-size="2.1" region="Landkreis Saarlouis">Ensdorf/Saar (3)</text>
			<circle cx="1515" cy="-12670" name="Saarwellingen" wikidata="Q555648" maxconnections="4" r="0.9333" fill="black" stroke="#1b1bf3" stroke-width="0.350000" opacity="0.8" region="Landkreis Saarlouis" />
			<text x="1515" y="-12670" name="Saarwellingen" wikidata="Q555648" maxconnections="4" fill="white" opacity="0.8" text-anchor="middle" font-size="2.1" region="Landkreis Saarlouis">Saarwellingen (4)</text>
			<circle cx="1487" cy="-12675" name="Rehlingen-Siersburg" wikidata="Q552797" maxconnections="4" r="0.9333" fill="black" stroke="#1b1bf3" stroke-width="0.350000" opacity="0.8" region="Landkreis Saarlouis" />
			<text x="1487" y="-12675" name="Rehlingen-Siersburg" wikidata="Q552797" maxconnections="4" fill="white" opacity="0.8" text-anchor="middle" font-size="2.1" region="Landkreis Saarlouis">Rehlingen-Siersburg (4)</text>
			<circle cx="1496" cy="-12661" name="Wallerfangen" wikidata="Q665005" maxconnections="4" r="0.9333" fill="black" stroke="#1b1bf3" stroke-width="0.350000" opacity="0.8" region="Landkreis Saarlouis" />
			<text x="1496" y="-12661" name="Wallerfangen" wikidata="Q665005" maxconnections="4" fill="white" opacity="0.8" text-anchor="middle" font-size="2.1" region="Landkreis Saarlouis">Wallerfangen (4)</text>
			<circle cx="1526" cy="-12701" name="Schmelz" wikidata="Q554258" maxconnections="4" r="0.9333" fill="black" stroke="#1b1bf3" stroke-width="0.350000" opacity="0.8" region="Landkreis Saarlouis" />
			<text x="1526" y="-12701" name="Schmelz" wikidata="Q554258" maxconnections="4" fill="white" opacity="0.8" text-anchor="middle" font-size="2.1" region="Landkreis Saarlouis">Schmelz (4)</text>
			<circle cx="1513" cy="-12643" name="Bous" wikidata="Q630080" maxconnections="3" r="0.7000" fill="black" stroke="#1b1bf3" stroke-width="0.350000" opacity="0.8" region="Landkreis Saarlouis" />
			<text x="1513" y="-12643" name="Bous" wikidata="Q630080" maxconnections="3" fill="white" opacity="0.8" text-anchor="middle" font-size="2.1" region="Landkreis Saarlouis">Bous (3)</text>
			<circle cx="1536" cy="-12712" name="Limbach" wikidata="Q1825349" maxconnections="3" r="0.7000" fill="black" stroke="#1b1bf3" stroke-width="0.350000" opacity="0.8" region="Landkreis Saarlouis" />
			<text x="1536" y="-12712" name="Limbach" wikidata="Q1825349" maxconnections="3" fill="white" opacity="0.8" text-anchor="middle" font-size="2.1" region="Landkreis Saarlouis">Limbach (3)</text>
			<circle cx="1524" cy="-12651" name="Elm" wikidata="Q14537600" maxconnections="3" r="0.7000" fill="black" stroke="#1b1bf3" stroke-width="0.350000" opacity="0.8" region="Landkreis Saarlouis" />
			<text x="1524" y="-12651" name="Elm" wikidata="Q14537600" maxconnections="3" fill="white" opacity="0.8" text-anchor="middle" font-size="2.1" region="Landkreis Saarlouis">Elm (3)</text>
			<circle cx="1524" cy="-12693" name="Hüttersdorf" wikidata="Q15115432" maxconnections="3" r="0.7000" fill="black" stroke="#1b1bf3" stroke-width="0.350000" opacity="0.8" region="Landkreis Saarlouis" />
			<text x="1524" y="-12693" name="Hüttersdorf" wikidata="Q15115432" maxconnections="3" fill="white" opacity="0.8" text-anchor="middle" font-size="2.1" region="Landkreis Saarlouis">Hüttersdorf (3)</text>
			<circle cx="1538" cy="-12691" name="Lebach" wikidata="Q558593" maxconnections="5" r="1.1667" fill="black" stroke="#1b1bf3" stroke-width="0.350000" opacity="0.8" region="Landkreis Saarlouis" />
			<text x="1538" y="-12691" name="Lebach" wikidata="Q558593" maxconnections="5" fill="white" opacity="0.8" text-anchor="middle" font-size="2.1" region="Landkreis Saarlouis">Lebach (5)</text>
			<circle cx="1492" cy="-12633" name="Überherrn" wikidata="Q332495" maxconnections="4" r="0.9333" fill="black" stroke="#1b1bf3" stroke-width="0.350000" opacity="0.8" region="Landkreis Saarlouis" />
			<text x="1492" y="-12633" name="Überherrn" wikidata="Q332495" maxconnections="4" fill="white" opacity="0.8" text-anchor="middle" font-size="2.1" region="Landkreis Saarlouis">Überherrn (4)</text>
			<circle cx="1519" cy="-12653" name="Schwalbach (Saar)" wikidata="Q686818" maxconnections="5" r="1.1667" fill="black" stroke="#1b1bf3" stroke-width="0.350000" opacity="0.8" region="Landkreis Saarlouis" />
			<text x="1519" y="-12653" name="Schwalbach (Saar)" wikidata="Q686818" maxconnections="5" fill="white" opacity="0.8" text-anchor="middle" font-size="2.1" region="Landkreis Saarlouis">Schwalbach (Saar) (5)</text>
			<circle cx="1503" cy="-12657" name="Saarlouis" wikidata="Q14912" maxconnections="5" r="1.1667" fill="black" stroke="#1b1bf3" stroke-width="0.350000" opacity="0.8" region="Landkreis Saarlouis" />
			<text x="1503" y="-12657" name="Saarlouis" wikidata="Q14912" maxconnections="5" fill="white" opacity="0.8" text-anchor="middle" font-size="2.1" region="Landkreis Saarlouis">Saarlouis (5)</text>
		</g>
		<g name="Regionalverband Saarbrücken" wikidata="Q6805">
			<polygon points="1496,-12610 1496,-12611 1495,-12611 1495,-12613 1494,-12613 1494,-12614 1496,-12616 1496,-12617 1497,-12617 1499,-12620 1498,-12620 1498,-12622 1497,-12624 1498,-12625 1498,-12626 1499,-12626 1500,-12627 1501,-12627 1502,-12626 1509,-12626 1510,-12627 1511,-12629 1512,-12630 1513,-12630 1514,-12629 1514,-12630 1513,-12631 1516,-12631 1516,-12632 1517,-12633 1518,-12635 1519,-12635 1519,-12637 1522,-12637 1522,-12638 1521,-12639 1521,-12640 1520,-12640 1520,-12641 1519,-12641 1518,-12642 1519,-12642 1519,-12643 1522,-12643 1523,-12642 1526,-12642 1526,-12643 1527,-12643 1527,-12644 1526,-12644 1526,-12646 1527,-12646 1527,-12648 1529,-12648 1529,-12649 1528,-12649 1528,-12650 1527,-12650 1528,-12651 1528,-12650 1529,-12650 1529,-12649 1530,-12650 1530,-12651 1531,-12651 1532,-12652 1531,-12653 1531,-12656 1532,-12657 1532,-12659 1531,-12659 1531,-12662 1532,-12662 1532,-12664 1531,-12664 1531,-12666 1530,-12666 1530,-12667 1531,-12668 1532,-12668 1532,-12669 1534,-12669 1534,-12670 1536,-12670 1536,-12671 1537,-12671 1538,-12672 1538,-12673 1539,-12673 1539,-12674 1541,-12674 1541,-12675 1543,-12675 1543,-12678 1544,-12678 1544,-12677 1545,-12677 1545,-12678 1546,-12678 1547,-12677 1549,-12677 1549,-12674 1550,-12673 1550,-12672 1551,-12672 1551,-12671 1553,-12671 1554,-12672 1562,-12672 1562,-12671 1563,-12672 1563,-12670 1562,-12670 1562,-12669 1565,-12669 1565,-12668 1566,-12669 1568,-12669 1568,-12668 1569,-12666 1569,-12667 1572,-12667 1572,-12662 1575,-12662 1575,-12667 1577,-12667 1578,-12668 1578,-12667 1579,-12666 1579,-12665 1580,-12665 1581,-12666 1581,-12665 1583,-12665 1583,-12664 1584,-12664 1584,-12663 1582,-12663 1582,-12662 1583,-12662 1583,-12660 1584,-12660 1584,-12659 1583,-12659 1583,-12658 1582,-12657 1583,-12657 1583,-12656 1585,-12656 1585,-12655 1584,-12654 1583,-12654 1582,-12653 1581,-12653 1580,-12652 1579,-12652 1579,-12651 1578,-12651 1577,-12650 1577,-12648 1578,-12648 1578,-12646 1576,-12645 1576,-12643 1573,-12643 1573,-12642 1572,-12642 1572,-12641 1573,-12640 1573,-12638 1574,-12637 1575,-12637 1576,-12638 1576,-12637 1577,-12636 1576,-12635 1577,-12635 1577,-12634 1578,-12633 1581,-12636 1582,-12636 1582,-12637 1583,-12637 1583,-12635 1584,-12635 1585,-12634 1586,-12634 1588,-12633 1587,-12632 1587,-12627 1586,-12627 1586,-12624 1589,-12624 1589,-12621 1588,-12622 1587,-12622 1587,-12620 1586,-12619 1585,-12619 1585,-12615 1584,-12615 1584,-12614 1582,-12614 1582,-12612 1583,-12612 1583,-12610 1587,-12610 1587,-12608 1586,-12607 1584,-12607 1584,-12606 1583,-12606 1583,-12605 1582,-12605 1582,-12604 1581,-12603 1580,-12603 1580,-12602 1579,-12602 1579,-12601 1578,-12601 1578,-12602 1577,-12602 1577,-12601 1576,-12601 1576,-12600 1577,-12600 1577,-12597 1578,-12597 1578,-12595 1579,-12595 1579,-12594 1578,-12594 1578,-12593 1575,-12593 1575,-12592 1574,-12592 1574,-12589 1573,-12589 1573,-12588 1570,-12588 1570,-12589 1569,-12589 1569,-12590 1568,-12590 1568,-12593 1569,-12593 1569,-12597 1568,-12598 1568,-12600 1567,-12600 1567,-12601 1566,-12602 1566,-12606 1565,-12606 1565,-12610 1566,-12611 1566,-12615 1565,-12615 1564,-12614 1563,-12614 1563,-12615 1562,-12615 1561,-12614 1561,-12615 1560,-12616 1558,-12616 1558,-12617 1557,-12617 1557,-12618 1556,-12618 1556,-12619 1555,-12619 1555,-12620 1554,-12620 1553,-12621 1552,-12621 1550,-12619 1549,-12619 1546,-12622 1546,-12623 1545,-12623 1545,-12625 1542,-12625 1542,-12626 1541,-12625 1540,-12625 1540,-12624 1539,-12623 1537,-12623 1536,-12622 1535,-12622 1535,-12621 1534,-12621 1533,-12622 1531,-12622 1531,-12623 1530,-12623 1530,-12624 1529,-12624 1529,-12625 1526,-12625 1526,-12624 1524,-12624 1524,-12623 1523,-12623 1523,-12622 1522,-12622 1522,-12621 1523,-12621 1523,-12620 1524,-12620 1524,-12619 1525,-12619 1525,-12618 1526,-12618 1526,-12617 1525,-12617 1525,-12615 1526,-12615 1526,-12614 1527,-12614 1527,-12612 1528,-12612 1528,-12610 1527,-12610 1527,-12609 1524,-12609 1524,-12603 1523,-12602 1522,-12602 1522,-12601 1521,-12601 1520,-12602 1519,-12602 1519,-12603 1516,-12603 1516,-12604 1515,-12604 1515,-12605 1512,-12605 1512,-12606 1511,-12606 1511,-12607 1508,-12607 1508,-12606 1501,-12606 1500,-12605 1500,-12606 1499,-12607 1498,-12607 1498,-12608 1497,-12609 1496,-12609 1496,-12610" fill="#dfdf05" stroke="black" stroke-width="0.3500" stroke-linecap="round" stroke-linejoin="round" opacity="0.8" region="Regionalverband Saarbrücken" />
			<circle cx="1543" cy="-12665" name="Heusweiler" wikidata="Q658459" maxconnections="5" r="1.1667" fill="black" stroke="#dfdf05" stroke-width="0.350000" opacity="0.8" region="Regionalverband Saarbrücken" />
			<text x="1543" y="-12665" name="Heusweiler" wikidata="Q658459" maxconnections="5" fill="white" opacity="0.8" text-anchor="middle" font-size="2.1" region="Regionalverband Saarbrücken">Heusweiler (5)</text>
			<circle cx="1570" cy="-12661" name="Quierschied" wikidata="Q662580" maxconnections="4" r="0.9333" fill="black" stroke="#dfdf05" stroke-width="0.350000" opacity="0.8" region="Regionalverband Saarbrücken" />
			<text x="1570" y="-12661" name="Quierschied" wikidata="Q662580" maxconnections="4" fill="white" opacity="0.8" text-anchor="middle" font-size="2.1" region="Regionalverband Saarbrücken">Quierschied (4)</text>
			<circle cx="1581" cy="-12615" name="Eschringen" wikidata="Q1367144" maxconnections="2" r="0.4667" fill="black" stroke="#dfdf05" stroke-width="0.350000" opacity="0.8" region="Regionalverband Saarbrücken" />
			<text x="1581" y="-12615" name="Eschringen" wikidata="Q1367144" maxconnections="2" fill="white" opacity="0.8" text-anchor="middle" font-size="2.1" region="Regionalverband Saarbrücken">Eschringen (2)</text>
			<circle cx="1546" cy="-12653" name="Riegelsberg" wikidata="Q628341" maxconnections="4" r="0.9333" fill="black" stroke="#dfdf05" stroke-width="0.350000" opacity="0.8" region="Regionalverband Saarbrücken" />
			<text x="1546" y="-12653" name="Riegelsberg" wikidata="Q628341" maxconnections="4" fill="white" opacity="0.8" text-anchor="middle" font-size="2.1" region="Regionalverband Saarbrücken">Riegelsberg (4)</text>
			<circle cx="1522" cy="-12619" name="Großrosseln" wikidata="Q39797" maxconnections="3" r="0.7000" fill="black" stroke="#dfdf05" stroke-width="0.350000" opacity="0.8" region="Regionalverband Saarbrücken" />
			<text x="1522" y="-12619" name="Großrosseln" wikidata="Q39797" maxconnections="3" fill="white" opacity="0.8" text-anchor="middle" font-size="2.1" region="Regionalverband Saarbrücken">Großrosseln (3)</text>
			<circle cx="1572" cy="-12652" name="Sulzbach/Saar" wikidata="Q616258" maxconnections="5" r="1.1667" fill="black" stroke="#dfdf05" stroke-width="0.350000" opacity="0.8" region="Regionalverband Saarbrücken" />
			<text x="1572" y="-12652" name="Sulzbach/Saar" wikidata="Q616258" maxconnections="5" fill="white" opacity="0.8" text-anchor="middle" font-size="2.1" region="Regionalverband Saarbrücken">Sulzbach/Saar (5)</text>
			<circle cx="1580" cy="-12659" name="Friedrichsthal" wikidata="Q550828" maxconnections="4" r="0.9333" fill="black" stroke="#dfdf05" stroke-width="0.350000" opacity="0.8" region="Regionalverband Saarbrücken" />
			<text x="1580" y="-12659" name="Friedrichsthal" wikidata="Q550828" maxconnections="4" fill="white" opacity="0.8" text-anchor="middle" font-size="2.1" region="Regionalverband Saarbrücken">Friedrichsthal (4)</text>
			<circle cx="1558" cy="-12629" name="Saarbrücken" wikidata="Q1724" maxconnections="5" r="1.1667" fill="black" stroke="#dfdf05" stroke-width="0.350000" opacity="0.8" region="Regionalverband Saarbrücken" />
			<text x="1558" y="-12629" name="Saarbrücken" wikidata="Q1724" maxconnections="5" fill="white" opacity="0.8" text-anchor="middle" font-size="2.1" region="Regionalverband Saarbrücken">Saarbrücken (5)</text>
			<circle cx="1527" cy="-12636" name="Völklingen" wikidata="Q14876" maxconnections="5" r="1.1667" fill="black" stroke="#dfdf05" stroke-width="0.350000" opacity="0.8" region="Regionalverband Saarbrücken" />
			<text x="1527" y="-12636" name="Völklingen" wikidata="Q14876" maxconnections="5" fill="white" opacity="0.8" text-anchor="middle" font-size="2.1" region="Regionalverband Saarbrücken">Völklingen (5)</text>
		</g>
		<g name="Saarpfalz-Kreis" wikidata="Q6793">
			<polygon points="1572,-12642 1573,-12642 1573,-12643 1576,-12643 1576,-12645 1577,-12646 1578,-12648 1577,-12648 1577,-12650 1578,-12651 1579,-12651 1579,-12652 1580,-12652 1581,-12653 1582,-12653 1583,-12654 1584,-12654 1584,-12655 1586,-12654 1586,-12655 1587,-12654 1588,-12654 1589,-12653 1589,-12652 1594,-12652 1594,-12650 1595,-12651 1595,-12652 1596,-12652 1596,-12653 1600,-12653 1600,-12650 1599,-12650 1599,-12647 1600,-12647 1600,-12648 1602,-12648 1603,-12649 1605,-12649 1605,-12650 1608,-12650 1608,-12651 1610,-12651 1611,-12652 1612,-12652 1612,-12653 1613,-12653 1614,-12654 1614,-12656 1613,-12656 1613,-12658 1614,-12658 1614,-12659 1615,-12658 1617,-12658 1618,-12660 1617,-12660 1617,-12661 1614,-12661 1614,-12662 1613,-12662 1613,-12663 1612,-12663 1612,-12664 1611,-12665 1611,-12666 1612,-12667 1612,-12671 1611,-12672 1611,-12673 1608,-12673 1608,-12674 1607,-12674 1607,-12675 1609,-12677 1610,-12677 1610,-12678 1611,-12678 1611,-12679 1612,-12680 1612,-12681 1614,-12681 1614,-12682 1615,-12683 1614,-12683 1615,-12684 1615,-12685 1618,-12685 1618,-12686 1619,-12686 1619,-12687 1622,-12687 1623,-12688 1624,-12688 1624,-12689 1625,-12688 1624,-12687 1624,-12686 1625,-12686 1625,-12685 1624,-12685 1624,-12684 1623,-12684 1623,-12682 1626,-12682 1626,-12681 1628,-12681 1628,-12680 1630,-12680 1630,-12679 1638,-12679 1637,-12677 1641,-12677 1640,-12676 1640,-12674 1643,-12674 1643,-12675 1645,-12675 1645,-12676 1648,-12676 1648,-12675 1647,-12674 1646,-12674 1646,-12673 1647,-12673 1647,-12672 1648,-12672 1648,-12671 1647,-12670 1646,-12670 1646,-12669 1647,-12669 1647,-12668 1648,-12668 1648,-12664 1647,-12664 1647,-12663 1646,-12663 1646,-12661 1645,-12661 1645,-12660 1644,-12659 1643,-12659 1643,-12658 1644,-12658 1644,-12659 1646,-12659 1646,-12656 1645,-12656 1646,-12655 1644,-12655 1644,-12654 1643,-12654 1643,-12650 1645,-12650 1644,-12649 1644,-12648 1643,-12648 1643,-12646 1642,-12646 1642,-12645 1641,-12645 1641,-12646 1640,-12646 1640,-12644 1639,-12645 1638,-12645 1638,-12646 1636,-12646 1636,-12645 1635,-12646 1635,-12645 1633,-12645 1633,-12644 1634,-12643 1635,-12643 1635,-12641 1634,-12640 1634,-12639 1633,-12639 1632,-12638 1631,-12638 1631,-12637 1632,-12637 1631,-12636 1631,-12634 1630,-12634 1630,-12635 1629,-12635 1629,-12636 1628,-12636 1628,-12637 1627,-12637 1627,-12636 1626,-12636 1626,-12633 1625,-12632 1624,-12632 1624,-12631 1623,-12631 1623,-12630 1624,-12630 1624,-12629 1623,-12629 1623,-12627 1624,-12627 1625,-12626 1626,-12626 1626,-12623 1625,-12623 1625,-12620 1624,-12620 1625,-12619 1626,-12620 1626,-12619 1627,-12618 1627,-12617 1628,-12617 1629,-12615 1630,-12615 1630,-12614 1632,-12614 1632,-12613 1634,-12613 1634,-12612 1633,-12612 1633,-12609 1635,-12609 1635,-12607 1636,-12605 1637,-12605 1637,-12604 1638,-12605 1639,-12605 1639,-12604 1640,-12604 1640,-12605 1641,-12605 1639,-12603 1639,-12598 1638,-12599 1637,-12599 1636,-12598 1635,-12598 1635,-12599 1632,-12599 1631,-12598 1630,-12598 1628,-12596 1628,-12594 1627,-12594 1627,-12593 1626,-12593 1626,-12591 1624,-12589 1621,-12589 1621,-12590 1622,-12591 1622,-12592 1621,-12592 1621,-12591 1620,-12591 1620,-12592 1618,-12592 1618,-12591 1617,-12592 1616,-12592 1614,-12593 1613,-12594 1612,-12594 1612,-12593 1611,-12594 1611,-12593 1609,-12593 1609,-12592 1604,-12592 1604,-12590 1603,-12590 1603,-12589 1602,-12589 1602,-12591 1601,-12592 1601,-12593 1600,-12593 1600,-12594 1598,-12594 1598,-12593 1597,-12594 1597,-12593 1595,-12593 1595,-12592 1594,-12592 1594,-12591 1593,-12591 1593,-12592 1590,-12592 1590,-12593 1589,-12593 1589,-12594 1588,-12594 1588,-12596 1587,-12598 1585,-12598 1585,-12597 1581,-12597 1581,-12599 1582,-12599 1582,-12600 1583,-12600 1583,-12601 1584,-12601 1583,-12602 1582,-12602 1582,-12603 1581,-12603 1582,-12604 1582,-12605 1583,-12605 1583,-12606 1584,-12606 1584,-12607 1586,-12607 1587,-12608 1587,-12610 1583,-12610 1583,-12612 1582,-12612 1582,-12614 1584,-12614 1584,-12615 1585,-12615 1585,-12619 1586,-12619 1587,-12620 1587,-12622 1588,-12622 1589,-12621 1589,-12624 1586,-12624 1586,-12627 1587,-12627 1587,-12632 1588,-12633 1586,-12633 1584,-12635 1583,-12635 1583,-12637 1582,-12637 1582,-12636 1581,-12636 1578,-12633 1578,-12634 1577,-12635 1576,-12635 1577,-12636 1576,-12637 1576,-12638 1575,-12637 1574,-12637 1573,-12638 1573,-12640 1572,-12641 1572,-12642" fill="#f41e1e" stroke="black" stroke-width="0.3500" stroke-linecap="round" stroke-linejoin="round" opacity="0.8" region="Saarpfalz-Kreis" />
			<circle cx="1633" cy="-12658" name="Homburg" wikidata="Q7040" maxconnections="5" r="1.1667" fill="black" stroke="#f41e1e" stroke-width="0.350000" opacity="0.8" region="Saarpfalz-Kreis" />
			<text x="1633" y="-12658" name="Homburg" wikidata="Q7040" maxconnections="5" fill="white" opacity="0.8" text-anchor="middle" font-size="2.1" region="Saarpfalz-Kreis">Homburg (5)</text>
			<circle cx="1615" cy="-12668" name="Bexbach" wikidata="Q504022" maxconnections="5" r="1.1667" fill="black" stroke="#f41e1e" stroke-width="0.350000" opacity="0.8" region="Saarpfalz-Kreis" />
			<text x="1615" y="-12668" name="Bexbach" wikidata="Q504022" maxconnections="5" fill="white" opacity="0.8" text-anchor="middle" font-size="2.1" region="Saarpfalz-Kreis">Bexbach (5)</text>
			<circle cx="1599" cy="-12616" name="Erfweiler-Ehlingen" wikidata="Q1350255" maxconnections="2" r="0.4667" fill="black" stroke="#f41e1e" stroke-width="0.350000" opacity="0.8" region="Saarpfalz-Kreis" />
			<text x="1599" y="-12616" name="Erfweiler-Ehlingen" wikidata="Q1350255" maxconnections="2" fill="white" opacity="0.8" text-anchor="middle" font-size="2.1" region="Saarpfalz-Kreis">Erfweiler-Ehlingen (2)</text>
			<circle cx="1608" cy="-12607" name="Herbitzheim" wikidata="Q1609431" maxconnections="2" r="0.4667" fill="black" stroke="#f41e1e" stroke-width="0.350000" opacity="0.8" region="Saarpfalz-Kreis" />
			<text x="1608" y="-12607" name="Herbitzheim" wikidata="Q1609431" maxconnections="2" fill="white" opacity="0.8" text-anchor="middle" font-size="2.1" region="Saarpfalz-Kreis">Herbitzheim (2)</text>
			<circle cx="1595" cy="-12612" name="Wittersheim" wikidata="Q206094" maxconnections="2" r="0.4667" fill="black" stroke="#f41e1e" stroke-width="0.350000" opacity="0.8" region="Saarpfalz-Kreis" />
			<text x="1595" y="-12612" name="Wittersheim" wikidata="Q206094" maxconnections="2" fill="white" opacity="0.8" text-anchor="middle" font-size="2.1" region="Saarpfalz-Kreis">Wittersheim (2)</text>
			<circle cx="1589" cy="-12628" name="Heckendalheim" wikidata="Q116709" maxconnections="2" r="0.4667" fill="black" stroke="#f41e1e" stroke-width="0.350000" opacity="0.8" region="Saarpfalz-Kreis" />
			<text x="1589" y="-12628" name="Heckendalheim" wikidata="Q116709" maxconnections="2" fill="white" opacity="0.8" text-anchor="middle" font-size="2.1" region="Saarpfalz-Kreis">Heckendalheim (2)</text>
			<circle cx="1604" cy="-12599" name="Gersheim" wikidata="Q627722" maxconnections="3" r="0.7000" fill="black" stroke="#f41e1e" stroke-width="0.350000" opacity="0.8" region="Saarpfalz-Kreis" />
			<text x="1604" y="-12599" name="Gersheim" wikidata="Q627722" maxconnections="3" fill="white" opacity="0.8" text-anchor="middle" font-size="2.1" region="Saarpfalz-Kreis">Gersheim (3)</text>
			<circle cx="1594" cy="-12606" name="Bebelsheim" wikidata="Q813527" maxconnections="2" r="0.4667" fill="black" stroke="#f41e1e" stroke-width="0.350000" opacity="0.8" region="Saarpfalz-Kreis" />
			<text x="1594" y="-12606" name="Bebelsheim" wikidata="Q813527" maxconnections="2" fill="white" opacity="0.8" text-anchor="middle" font-size="2.1" region="Saarpfalz-Kreis">Bebelsheim (2)</text>
			<circle cx="1610" cy="-12646" name="Kirkel" wikidata="Q553589" maxconnections="4" r="0.9333" fill="black" stroke="#f41e1e" stroke-width="0.350000" opacity="0.8" region="Saarpfalz-Kreis" />
			<text x="1610" y="-12646" name="Kirkel" wikidata="Q553589" maxconnections="4" fill="white" opacity="0.8" text-anchor="middle" font-size="2.1" region="Saarpfalz-Kreis">Kirkel (4)</text>
			<circle cx="1622" cy="-12639" name="Bierbach" wikidata="Q693126" maxconnections="2" r="0.4667" fill="black" stroke="#f41e1e" stroke-width="0.350000" opacity="0.8" region="Saarpfalz-Kreis" />
			<text x="1622" y="-12639" name="Bierbach" wikidata="Q693126" maxconnections="2" fill="white" opacity="0.8" text-anchor="middle" font-size="2.1" region="Saarpfalz-Kreis">Bierbach (2)</text>
			<circle cx="1616" cy="-12630" name="Blieskastel" wikidata="Q523709" maxconnections="5" r="1.1667" fill="black" stroke="#f41e1e" stroke-width="0.350000" opacity="0.8" region="Saarpfalz-Kreis" />
			<text x="1616" y="-12630" name="Blieskastel" wikidata="Q523709" maxconnections="5" fill="white" opacity="0.8" text-anchor="middle" font-size="2.1" region="Saarpfalz-Kreis">Blieskastel (5)</text>
			<circle cx="1603" cy="-12633" name="Niederwürzbach" wikidata="Q1578495" maxconnections="3" r="0.7000" fill="black" stroke="#f41e1e" stroke-width="0.350000" opacity="0.8" region="Saarpfalz-Kreis" />
			<text x="1603" y="-12633" name="Niederwürzbach" wikidata="Q1578495" maxconnections="3" fill="white" opacity="0.8" text-anchor="middle" font-size="2.1" region="Saarpfalz-Kreis">Niederwürzbach (3)</text>
			<circle cx="1592" cy="-12613" name="Mandelbachtal" wikidata="Q818550" maxconnections="4" r="0.9333" fill="black" stroke="#f41e1e" stroke-width="0.350000" opacity="0.8" region="Saarpfalz-Kreis" />
			<text x="1592" y="-12613" name="Mandelbachtal" wikidata="Q818550" maxconnections="4" fill="white" opacity="0.8" text-anchor="middle" font-size="2.1" region="Saarpfalz-Kreis">Mandelbachtal (4)</text>
			<circle cx="1584" cy="-12645" name="St. Ingbert" wikidata="Q14907" maxconnections="5" r="1.1667" fill="black" stroke="#f41e1e" stroke-width="0.350000" opacity="0.8" region="Saarpfalz-Kreis" />
			<text x="1584" y="-12645" name="St. Ingbert" wikidata="Q14907" maxconnections="5" fill="white" opacity="0.8" text-anchor="middle" font-size="2.1" region="Saarpfalz-Kreis">St. Ingbert (5)</text>
			<circle cx="1594" cy="-12624" name="Ommersheim" wikidata="Q879546" maxconnections="3" r="0.7000" fill="black" stroke="#f41e1e" stroke-width="0.350000" opacity="0.8" region="Saarpfalz-Kreis" />
			<text x="1594" y="-12624" name="Ommersheim" wikidata="Q879546" maxconnections="3" fill="white" opacity="0.8" text-anchor="middle" font-size="2.1" region="Saarpfalz-Kreis">Ommersheim (3)</text>
			<circle cx="1589" cy="-12596" name="Habkirchen" wikidata="Q1566937" maxconnections="2" r="0.4667" fill="black" stroke="#f41e1e" stroke-width="0.350000" opacity="0.8" region="Saarpfalz-Kreis" />
			<text x="1589" y="-12596" name="Habkirchen" wikidata="Q1566937" maxconnections="2" fill="white" opacity="0.8" text-anchor="middle" font-size="2.1" region="Saarpfalz-Kreis">Habkirchen (2)</text>
			<circle cx="1604" cy="-12625" name="Biesingen" wikidata="Q858147" maxconnections="2" r="0.4667" fill="black" stroke="#f41e1e" stroke-width="0.350000" opacity="0.8" region="Saarpfalz-Kreis" />
			<text x="1604" y="-12625" name="Biesingen" wikidata="Q858147" maxconnections="2" fill="white" opacity="0.8" text-anchor="middle" font-size="2.1" region="Saarpfalz-Kreis">Biesingen (2)</text>
		</g>
		<g name="Landkreis St. Wendel" wikidata="Q6789">
			<polygon points="1534,-12759 1534,-12760 1536,-12760 1536,-12759 1538,-12759 1538,-12760 1542,-12760 1542,-12759 1543,-12759 1543,-12760 1542,-12761 1543,-12761 1543,-12760 1544,-12760 1545,-12761 1544,-12761 1544,-12763 1545,-12763 1544,-12764 1543,-12764 1543,-12765 1544,-12765 1544,-12766 1545,-12766 1545,-12767 1547,-12767 1547,-12763 1548,-12763 1548,-12764 1549,-12764 1549,-12765 1551,-12765 1552,-12766 1553,-12766 1553,-12767 1554,-12767 1554,-12766 1556,-12766 1556,-12767 1557,-12767 1557,-12765 1556,-12765 1556,-12763 1555,-12762 1556,-12762 1556,-12763 1557,-12763 1557,-12764 1558,-12764 1558,-12765 1562,-12765 1564,-12767 1564,-12768 1566,-12768 1566,-12767 1567,-12767 1568,-12766 1570,-12766 1570,-12765 1572,-12765 1572,-12764 1573,-12764 1573,-12763 1574,-12763 1574,-12762 1575,-12761 1575,-12760 1576,-12759 1576,-12758 1577,-12758 1577,-12756 1578,-12755 1579,-12755 1579,-12756 1581,-12756 1581,-12755 1582,-12755 1582,-12754 1584,-12754 1585,-12753 1590,-12753 1590,-12755 1591,-12755 1592,-12756 1594,-12756 1594,-12755 1597,-12755 1597,-12754 1598,-12753 1597,-12753 1597,-12749 1599,-12749 1599,-12748 1600,-12748 1600,-12746 1601,-12747 1605,-12747 1606,-12746 1606,-12745 1605,-12744 1606,-12743 1610,-12743 1610,-12744 1611,-12743 1611,-12744 1612,-12744 1612,-12746 1615,-12746 1616,-12747 1616,-12749 1618,-12749 1618,-12747 1617,-12747 1617,-12744 1618,-12744 1618,-12742 1619,-12742 1619,-12741 1620,-12740 1620,-12739 1619,-12739 1619,-12738 1620,-12737 1620,-12733 1622,-12733 1622,-12732 1625,-12732 1625,-12731 1626,-12730 1626,-12729 1627,-12729 1627,-12727 1626,-12727 1626,-12726 1625,-12726 1625,-12727 1626,-12727 1626,-12728 1625,-12727 1625,-12728 1624,-12728 1624,-12727 1623,-12727 1623,-12726 1622,-12726 1623,-12725 1622,-12724 1621,-12724 1621,-12723 1622,-12723 1621,-12722 1622,-12722 1621,-12721 1622,-12721 1622,-12720 1621,-12719 1621,-12715 1623,-12715 1624,-12714 1625,-12714 1625,-12712 1626,-12712 1626,-12711 1625,-12710 1626,-12709 1625,-12709 1625,-12708 1624,-12708 1623,-12707 1622,-12707 1622,-12705 1620,-12705 1619,-12704 1617,-12704 1617,-12703 1614,-12703 1614,-12702 1613,-12702 1613,-12701 1614,-12701 1615,-12700 1615,-12698 1614,-12698 1615,-12697 1614,-12696 1614,-12697 1613,-12696 1609,-12696 1608,-12697 1608,-12698 1607,-12698 1607,-12699 1606,-12699 1606,-12700 1605,-12700 1604,-12699 1604,-12698 1603,-12698 1603,-12697 1602,-12697 1601,-12696 1601,-12695 1599,-12695 1598,-12694 1596,-12694 1595,-12693 1594,-12693 1594,-12692 1589,-12692 1588,-12693 1588,-12695 1586,-12695 1586,-12696 1585,-12696 1584,-12695 1584,-12696 1582,-12696 1582,-12694 1581,-12693 1579,-12693 1579,-12691 1578,-12691 1578,-12690 1573,-12690 1573,-12689 1572,-12689 1571,-12690 1571,-12692 1570,-12692 1570,-12694 1569,-12694 1569,-12695 1568,-12695 1568,-12694 1564,-12694 1564,-12695 1562,-12695 1562,-12696 1561,-12696 1561,-12697 1560,-12698 1558,-12698 1558,-12699 1556,-12699 1556,-12701 1555,-12701 1555,-12703 1554,-12703 1554,-12704 1553,-12705 1553,-12706 1552,-12706 1552,-12707 1553,-12708 1553,-12710 1552,-12710 1552,-12713 1551,-12713 1551,-12714 1552,-12714 1552,-12716 1550,-12716 1550,-12715 1548,-12715 1547,-12713 1545,-12711 1543,-12711 1543,-12710 1541,-12710 1541,-12711 1540,-12711 1540,-12713 1539,-12713 1539,-12715 1541,-12715 1541,-12716 1542,-12716 1542,-12717 1541,-12717 1541,-12718 1540,-12718 1540,-12720 1539,-12720 1539,-12722 1540,-12722 1540,-12723 1541,-12723 1541,-12722 1544,-12722 1544,-12723 1546,-12723 1546,-12724 1549,-12724 1549,-12727 1548,-12727 1549,-12728 1549,-12729 1548,-12730 1548,-12732 1549,-12732 1549,-12738 1548,-12739 1549,-12739 1549,-12740 1550,-12740 1550,-12742 1549,-12742 1549,-12743 1547,-12743 1548,-12744 1548,-12745 1547,-12745 1547,-12746 1548,-12746 1548,-12747 1549,-12747 1549,-12748 1548,-12748 1548,-12749 1549,-12750 1549,-12751 1548,-12751 1548,-12752 1549,-12752 1549,-12754 1548,-12753 1546,-12753 1546,-12754 1542,-12754 1542,-12753 1538,-12753 1538,-12752 1537,-12752 1535,-12754 1535,-12757 1534,-12757 1534,-12759" fill="#06dede" stroke="black" stroke-width="0.3500" stroke-linecap="round" stroke-linejoin="round" opacity="0.8" region="Landkreis St. Wendel" />
			<circle cx="1596" cy="-12709" name="Sankt Wendel" wikidata="Q569676" maxconnections="5" r="1.1667" fill="black" stroke="#06dede" stroke-width="0.350000" opacity="0.8" region="Landkreis St. Wendel" />
			<text x="1596" y="-12709" name="Sankt Wendel" wikidata="Q569676" maxconnections="5" fill="white" opacity="0.8" text-anchor="middle" font-size="2.1" region="Landkreis St. Wendel">Sankt Wendel (5)</text>
			<circle cx="1574" cy="-12710" name="Alsweiler" wikidata="Q432830" maxconnections="3" r="0.7000" fill="black" stroke="#06dede" stroke-width="0.350000" opacity="0.8" region="Landkreis St. Wendel" />
			<text x="1574" y="-12710" name="Alsweiler" wikidata="Q432830" maxconnections="3" fill="white" opacity="0.8" text-anchor="middle" font-size="2.1" region="Landkreis St. Wendel">Alsweiler (3)</text>
			<circle cx="1577" cy="-12724" name="Oberthal" wikidata="Q681213" maxconnections="3" r="0.7000" fill="black" stroke="#06dede" stroke-width="0.350000" opacity="0.8" region="Landkreis St. Wendel" />
			<text x="1577" y="-12724" name="Oberthal" wikidata="Q681213" maxconnections="3" fill="white" opacity="0.8" text-anchor="middle" font-size="2.1" region="Landkreis St. Wendel">Oberthal (3)</text>
			<circle cx="1571" cy="-12704" name="Marpingen" wikidata="Q630853" maxconnections="4" r="0.9333" fill="black" stroke="#06dede" stroke-width="0.350000" opacity="0.8" region="Landkreis St. Wendel" />
			<text x="1571" y="-12704" name="Marpingen" wikidata="Q630853" maxconnections="4" fill="white" opacity="0.8" text-anchor="middle" font-size="2.1" region="Landkreis St. Wendel">Marpingen (4)</text>
			<circle cx="1590" cy="-12728" name="Namborn" wikidata="Q555251" maxconnections="3" r="0.7000" fill="black" stroke="#06dede" stroke-width="0.350000" opacity="0.8" region="Landkreis St. Wendel" />
			<text x="1590" y="-12728" name="Namborn" wikidata="Q555251" maxconnections="3" fill="white" opacity="0.8" text-anchor="middle" font-size="2.1" region="Landkreis St. Wendel">Namborn (3)</text>
			<circle cx="1614" cy="-12738" name="Freisen" wikidata="Q569850" maxconnections="3" r="0.7000" fill="black" stroke="#06dede" stroke-width="0.350000" opacity="0.8" region="Landkreis St. Wendel" />
			<text x="1614" y="-12738" name="Freisen" wikidata="Q569850" maxconnections="3" fill="white" opacity="0.8" text-anchor="middle" font-size="2.1" region="Landkreis St. Wendel">Freisen (3)</text>
			<circle cx="1552" cy="-12757" name="Nonnweiler" wikidata="Q550261" maxconnections="4" r="0.9333" fill="black" stroke="#06dede" stroke-width="0.350000" opacity="0.8" region="Landkreis St. Wendel" />
			<text x="1552" y="-12757" name="Nonnweiler" wikidata="Q550261" maxconnections="4" fill="white" opacity="0.8" text-anchor="middle" font-size="2.1" region="Landkreis St. Wendel">Nonnweiler (4)</text>
			<circle cx="1590" cy="-12750" name="Nohfelden" wikidata="Q570209" maxconnections="4" r="0.9333" fill="black" stroke="#06dede" stroke-width="0.350000" opacity="0.8" region="Landkreis St. Wendel" />
			<text x="1590" y="-12750" name="Nohfelden" wikidata="Q570209" maxconnections="4" fill="white" opacity="0.8" text-anchor="middle" font-size="2.1" region="Landkreis St. Wendel">Nohfelden (4)</text>
			<circle cx="1566" cy="-12714" name="Tholey" wikidata="Q638618" maxconnections="4" r="0.9333" fill="black" stroke="#06dede" stroke-width="0.350000" opacity="0.8" region="Landkreis St. Wendel" />
			<text x="1566" y="-12714" name="Tholey" wikidata="Q638618" maxconnections="4" fill="white" opacity="0.8" text-anchor="middle" font-size="2.1" region="Landkreis St. Wendel">Tholey (4)</text>
		</g>
		<g name="Landkreis Neunkirchen" wikidata="Q6799">
			<polygon points="1541,-12691 1541,-12693 1542,-12694 1543,-12694 1543,-12696 1544,-12695 1545,-12695 1545,-12694 1546,-12694 1546,-12695 1547,-12695 1547,-12694 1548,-12694 1548,-12695 1550,-12695 1549,-12696 1550,-12696 1551,-12697 1553,-12697 1554,-12698 1556,-12698 1556,-12699 1558,-12699 1558,-12698 1560,-12698 1561,-12697 1561,-12696 1562,-12696 1562,-12695 1564,-12695 1564,-12694 1568,-12694 1568,-12695 1569,-12695 1569,-12694 1570,-12694 1570,-12692 1571,-12692 1571,-12690 1572,-12689 1573,-12689 1573,-12690 1578,-12690 1578,-12691 1579,-12691 1579,-12693 1581,-12693 1582,-12694 1582,-12696 1584,-12696 1584,-12695 1585,-12696 1586,-12696 1586,-12695 1588,-12695 1588,-12693 1589,-12692 1594,-12692 1594,-12693 1595,-12693 1596,-12694 1598,-12694 1599,-12695 1601,-12695 1601,-12696 1602,-12697 1603,-12697 1603,-12698 1604,-12698 1604,-12699 1605,-12700 1606,-12700 1606,-12699 1607,-12699 1607,-12698 1608,-12698 1608,-12697 1609,-12696 1613,-12696 1614,-12697 1614,-12696 1615,-12697 1615,-12696 1616,-12695 1617,-12695 1617,-12694 1620,-12694 1620,-12693 1621,-12692 1622,-12692 1623,-12691 1623,-12690 1624,-12689 1624,-12688 1623,-12688 1622,-12687 1619,-12687 1619,-12686 1618,-12686 1618,-12685 1615,-12685 1615,-12684 1614,-12683 1615,-12683 1614,-12682 1614,-12681 1612,-12681 1612,-12680 1611,-12679 1611,-12678 1610,-12678 1610,-12677 1609,-12677 1608,-12676 1608,-12675 1607,-12674 1608,-12674 1608,-12673 1611,-12673 1611,-12672 1612,-12671 1612,-12667 1611,-12666 1611,-12665 1612,-12664 1612,-12663 1613,-12663 1613,-12662 1614,-12662 1614,-12661 1617,-12661 1617,-12660 1618,-12660 1617,-12658 1615,-12658 1614,-12659 1614,-12658 1613,-12658 1613,-12656 1614,-12656 1614,-12654 1613,-12653 1612,-12653 1612,-12652 1611,-12652 1610,-12651 1608,-12651 1608,-12650 1605,-12650 1605,-12649 1603,-12649 1602,-12648 1600,-12648 1600,-12647 1599,-12647 1599,-12650 1600,-12650 1600,-12653 1596,-12653 1596,-12652 1595,-12652 1595,-12651 1594,-12650 1594,-12652 1589,-12652 1589,-12653 1588,-12654 1587,-12654 1586,-12655 1586,-12654 1585,-12655 1585,-12656 1583,-12656 1583,-12657 1582,-12657 1583,-12658 1583,-12659 1584,-12659 1584,-12660 1583,-12660 1583,-12662 1582,-12662 1582,-12663 1584,-12663 1584,-12664 1583,-12664 1583,-12665 1581,-12665 1581,-12666 1580,-12665 1579,-12665 1579,-12666 1578,-12667 1578,-12668 1577,-12667 1575,-12667 1575,-12662 1572,-12662 1572,-12667 1569,-12667 1569,-12668 1568,-12669 1566,-12669 1565,-12668 1565,-12669 1562,-12669 1562,-12670 1563,-12670 1563,-12672 1562,-12671 1562,-12672 1554,-12672 1553,-12671 1551,-12671 1551,-12672 1550,-12672 1550,-12673 1549,-12674 1549,-12677 1547,-12677 1546,-12678 1546,-12679 1545,-12679 1545,-12682 1544,-12682 1544,-12683 1545,-12683 1545,-12684 1544,-12684 1544,-12685 1541,-12685 1541,-12686 1543,-12686 1543,-12687 1542,-12687 1542,-12688 1541,-12688 1541,-12690 1540,-12690 1540,-12691 1541,-12691" fill="#1bf31b" stroke="black" stroke-width="0.3500" stroke-linecap="round" stroke-linejoin="round" opacity="0.8" region="Landkreis Neunkirchen" />
			<circle cx="1589" cy="-12657" name="Spiesen-Elversberg" wikidata="Q629932" maxconnections="4" r="0.9333" fill="black" stroke="#1bf31b" stroke-width="0.350000" opacity="0.8" region="Landkreis Neunkirchen" />
			<text x="1589" y="-12657" name="Spiesen-Elversberg" wikidata="Q629932" maxconnections="4" fill="white" opacity="0.8" text-anchor="middle" font-size="2.1" region="Landkreis Neunkirchen">Spiesen-Elversberg (4)</text>
			<circle cx="1595" cy="-12687" name="Ottweiler" wikidata="Q562147" maxconnections="4" r="0.9333" fill="black" stroke="#1bf31b" stroke-width="0.350000" opacity="0.8" region="Landkreis Neunkirchen" />
			<text x="1595" y="-12687" name="Ottweiler" wikidata="Q562147" maxconnections="4" fill="white" opacity="0.8" text-anchor="middle" font-size="2.1" region="Landkreis Neunkirchen">Ottweiler (4)</text>
			<circle cx="1587" cy="-12676" name="Schiffweiler" wikidata="Q631957" maxconnections="4" r="0.9333" fill="black" stroke="#1bf31b" stroke-width="0.350000" opacity="0.8" region="Landkreis Neunkirchen" />
			<text x="1587" y="-12676" name="Schiffweiler" wikidata="Q631957" maxconnections="4" fill="white" opacity="0.8" text-anchor="middle" font-size="2.1" region="Landkreis Neunkirchen">Schiffweiler (4)</text>
			<circle cx="1551" cy="-12689" name="Eppelborn" wikidata="Q570286" maxconnections="5" r="1.1667" fill="black" stroke="#1bf31b" stroke-width="0.350000" opacity="0.8" region="Landkreis Neunkirchen" />
			<text x="1551" y="-12689" name="Eppelborn" wikidata="Q570286" maxconnections="5" fill="white" opacity="0.8" text-anchor="middle" font-size="2.1" region="Landkreis Neunkirchen">Eppelborn (5)</text>
			<circle cx="1570" cy="-12678" name="Illingen, Saar" wikidata="Q517653" maxconnections="5" r="1.1667" fill="black" stroke="#1bf31b" stroke-width="0.350000" opacity="0.8" region="Landkreis Neunkirchen" />
			<text x="1570" y="-12678" name="Illingen, Saar" wikidata="Q517653" maxconnections="5" fill="white" opacity="0.8" text-anchor="middle" font-size="2.1" region="Landkreis Neunkirchen">Illingen, Saar (5)</text>
			<circle cx="1599" cy="-12669" name="Neunkirchen (Saar)" wikidata="Q6880" maxconnections="5" r="1.1667" fill="black" stroke="#1bf31b" stroke-width="0.350000" opacity="0.8" region="Landkreis Neunkirchen" />
			<text x="1599" y="-12669" name="Neunkirchen (Saar)" wikidata="Q6880" maxconnections="5" fill="white" opacity="0.8" text-anchor="middle" font-size="2.1" region="Landkreis Neunkirchen">Neunkirchen (Saar) (5)</text>
			<circle cx="1571" cy="-12671" name="Merchweiler" wikidata="Q630725" maxconnections="4" r="0.9333" fill="black" stroke="#1bf31b" stroke-width="0.350000" opacity="0.8" region="Landkreis Neunkirchen" />
			<text x="1571" y="-12671" name="Merchweiler" wikidata="Q630725" maxconnections="4" fill="white" opacity="0.8" text-anchor="middle" font-size="2.1" region="Landkreis Neunkirchen">Merchweiler (4)</text>
		</g>
	</g>
	<g endinglength="740" />
</svg>